<svg id="Группа_5" data-name="Группа 5" xmlns="http://www.w3.org/2000/svg" xmlns:xlink="http://www.w3.org/1999/xlink" width="1420" height="1420" viewBox="0 0 1420 1420">
  <defs>
    <style>
      .cls-1, .cls-2 {
        fill-rule: evenodd;
      }

      .cls-1 {
        fill: url(#linear-gradient);
      }

      .cls-2 {
        fill: url(#linear-gradient-2);
      }
    </style>
    <linearGradient id="linear-gradient" x1="2177.892" y1="1978" x2="1126.017" y2="926.125" gradientUnits="userSpaceOnUse">
      <stop offset="0" stop-color="#4a2c2a"/>
      <stop offset="1" stop-color="#6e4845"/>
    </linearGradient>
    <linearGradient id="linear-gradient-2" x1="814.67" y1="558" x2="2011.33" y2="1754.66" gradientUnits="userSpaceOnUse">
      <stop offset="0" stop-color="#83d447"/>
      <stop offset="1" stop-color="#37b54a"/>
    </linearGradient>
  </defs>
  <path id="Фигура_7_копия" data-name="Фигура 7 копия" class="cls-1" d="M2178.69,1061.83c24.84,71.43,31.31,167.58,31.31,206.17,0,392.12-317.88,710-710,710-85.13,0-219.7-18.25-344.68-89.31-146.81-83.48,6.09-196.97,81-268.01,146.25-127.48,356.55-272.78,473.45-378.42,39.26-36.25,22.77-6.8,11.49,9.92-117.87,168.15-259.4,273.52-472.19,458.48-10.33,10.34-62.28,55.37,27.85,23.9,477-163.3,676.25-468.62,759.42-700.83,21.54-60.137,31.8-95.314,54.66-105.73C2118.69,915.383,2149.83,967.433,2178.69,1061.83Z" transform="translate(-790 -558)"/>
  <path id="Фигура_7_копия_2" data-name="Фигура 7 копия 2" class="cls-2" d="M2036,832c0,115.349-232.53,138.833-490.17,238.74-197.4,76.55-330.38,161.28-419.76,274.97-86.15,113.75-79.44,216.66-77.07,319.29,1.51,65.69-3.29,78.11-20,87-56.454,30.04-239-200.67-239-484,0-392.122,324.57-710,710-710,255.59,0,416.95,135.3,448,160C1999.3,758.8,2036,797.956,2036,832Z" transform="translate(-790 -558)"/>
</svg>
