<svg id="Группа_12" data-name="Группа 12" xmlns="http://www.w3.org/2000/svg" xmlns:xlink="http://www.w3.org/1999/xlink" width="1878.03" height="1894" viewBox="0 0 1878.03 1894">
  <defs>
    <style>
      .cls-1, .cls-2, .cls-3, .cls-4 {
        fill-rule: evenodd;
      }

      .cls-1 {
        fill: url(#linear-gradient);
      }

      .cls-2 {
        fill: url(#linear-gradient-2);
      }

      .cls-3 {
        fill: #5ac349;
      }

      .cls-4 {
        fill: #5f3f3d;
        stroke: #000;
        stroke-linecap: square;
        stroke-linejoin: bevel;
        stroke-width: 1px;
      }
    </style>
    <linearGradient id="linear-gradient" x1="2177.892" y1="1978" x2="1126.017" y2="926.125" gradientUnits="userSpaceOnUse">
      <stop offset="0" stop-color="#4a2c2a"/>
      <stop offset="1" stop-color="#6e4845"/>
    </linearGradient>
    <linearGradient id="linear-gradient-2" x1="814.67" y1="558" x2="2011.33" y2="1754.66" gradientUnits="userSpaceOnUse">
      <stop offset="0" stop-color="#83d447"/>
      <stop offset="1" stop-color="#37b54a"/>
    </linearGradient>
  </defs>
  <g id="Группа_6_копия_3" data-name="Группа 6 копия 3">
    <g id="Группа_5" data-name="Группа 5">
      <path id="Фигура_7_копия" data-name="Фигура 7 копия" class="cls-1" d="M2178.69,1061.83c24.84,71.43,31.31,167.58,31.31,206.17,0,392.12-317.88,710-710,710-85.13,0-219.7-18.25-344.68-89.31-146.81-83.48,6.09-196.97,81-268.01,146.25-127.48,356.55-272.78,473.45-378.42,39.26-36.25,22.77-6.8,11.49,9.92-117.87,168.15-259.4,273.52-472.19,458.48-10.33,10.34-62.28,55.37,27.85,23.9,477-163.3,676.25-468.62,759.42-700.83,21.54-60.137,31.8-95.314,54.66-105.73C2118.69,915.383,2149.83,967.433,2178.69,1061.83Z" transform="translate(-561 -558)"/>
      <path id="Фигура_7_копия_2" data-name="Фигура 7 копия 2" class="cls-2" d="M2036,832c0,115.349-232.53,138.833-490.17,238.74-197.4,76.55-330.38,161.28-419.76,274.97-86.15,113.75-79.44,216.66-77.07,319.29,1.51,65.69-3.29,78.11-20,87-56.454,30.04-239-200.67-239-484,0-392.122,324.57-710,710-710,255.59,0,416.95,135.3,448,160C1999.3,758.8,2036,797.956,2036,832Z" transform="translate(-561 -558)"/>
    </g>
  </g>
  <g id="Группа_11" data-name="Группа 11">
    <g id="Группа_9" data-name="Группа 9">
      <path id="Фигура_10" data-name="Фигура 10" class="cls-3" d="M586,2452c-24.711,0-25-23-25-23V2191s1.067-23,25-23H748s24,0,24,23-24,23-24,23H611v215S610.711,2452,586,2452Z" transform="translate(-561 -558)"/>
      <path id="Фигура_13" data-name="Фигура 13" class="cls-3" d="M1053,2191s0.45-23,25-23,25,23,25,23v172l158-183s8.08-12,22-12c24.48,0,25,23,25,23v238s-0.32,23-25,23-25-23-25-23V2258l-158,183s-8.96,11-22,11c-25.14,0-25-23-25-23V2191Z" transform="translate(-561 -558)"/>
      <path id="Фигура_11" data-name="Фигура 11" class="cls-3" d="M818,2191s0.816-23,24-23h65c44.071,0,100,36.77,100,95,0,60.83-56.5,96-98,96H868v70s-0.1,23-25,23-25-23-25-23V2191Zm50,122v-99h34c19.272,0,55,15.42,55,49,0,35.07-33.992,50-49,50H868Z" transform="translate(-561 -558)"/>
      <path id="Фигура_14" data-name="Фигура 14" class="cls-3" d="M1355,2191s0.61-23,24-23c24.32,0,25,23,25,23v96h127v-96s0-23,24-23,25,23,25,23v238s-1.15,23-25,23-25-23-25-23v-96H1404v96s1.18,23-24,23-25-23-25-23V2191Z" transform="translate(-561 -558)"/>
    </g>
    <g id="Группа_10" data-name="Группа 10">
      <path id="Фигура_15" data-name="Фигура 15" class="cls-4" d="M1722,2214v215s1,23,25,23,24-23,24-23V2214h73s22,0,22-23-22-23-22-23H1649s-22,0-22,23,22,23,22,23h73Z" transform="translate(-561 -558)"/>
      <path id="Фигура_16" data-name="Фигура 16" class="cls-4" d="M1913,2191c0-11,11.54-23,23-23h179s23,0,23,23-23,23-23,23H1962v73h110s22-.47,22,23-22,22-22,22H1962v74h153s23,0,23,23-23,23-23,23H1937c-23.29,0-24-23-24-23V2191Z" transform="translate(-561 -558)"/>
      <path id="Фигура_17" data-name="Фигура 17" class="cls-4" d="M2312,2273l80-93s10.66-12,22-12,19,8,19,8,13.36,15.07,0,31-89,103-89,103l91,105s10.25,16.75-2,29c-11.63,11.63-27.05,9.57-37-1s-84-96-84-96-78.74,91-85,98-17,7-17,7-25-1.93-25-23c0-7.46,5-15,5-15l90-104-92-107s-8.66-16.9,4-28,29-7.64,40,5C2242.79,2192.4,2312,2273,2312,2273Z" transform="translate(-561 -558)"/>
    </g>
  </g>
</svg>
