<svg id="Группа_4" data-name="Группа 4" xmlns="http://www.w3.org/2000/svg" width="509.969" height="321.875" viewBox="0 0 509.969 321.875">
  <defs>
    <style>
      .cls-1 {
        fill: #c8c8c8;
        fill-rule: evenodd;
      }
    </style>
  </defs>
  <path id="Прямоугольник_скругл._углы_2" data-name="Прямоугольник, скругл. углы 2" class="cls-1" d="M42.045,238.829L177.889,375.591a24.293,24.293,0,0,1,0,34.191,23.9,23.9,0,0,1-33.962,0L8.084,273.019a24.292,24.292,0,0,1,0-34.19A23.9,23.9,0,0,1,42.045,238.829Z" transform="translate(-1 -95)"/>
  <path id="Прямоугольник_скругл._углы_2_копия" data-name="Прямоугольник, скругл. углы 2 копия" class="cls-1" d="M177.889,102.066a24.293,24.293,0,0,1,0,34.191L42.045,273.019a23.9,23.9,0,0,1-33.961,0,24.292,24.292,0,0,1,0-34.19L143.927,102.066A23.9,23.9,0,0,1,177.889,102.066Z" transform="translate(-1 -95)"/>
  <path id="Прямоугольник_скругл._углы_2_копия_2" data-name="Прямоугольник, скругл. углы 2 копия 2" class="cls-1" d="M510.969,255.793a23.93,23.93,0,0,1-23.836,24l-462.313.079a23.99,23.99,0,0,1,.02-47.979l462.311-.078A23.885,23.885,0,0,1,510.969,255.793Z" transform="translate(-1 -95)"/>
</svg>
